<mxfile host="Electron" agent="Mozilla/5.0 (Windows NT 10.0; Win64; x64) AppleWebKit/537.36 (KHTML, like Gecko) draw.io/26.0.16 Chrome/132.0.6834.196 Electron/34.2.0 Safari/537.36" version="26.0.16">
  <diagram name="Page-1" id="Q5OIMJiREpJnlcajXN1-">
    <mxGraphModel dx="1690" dy="621" grid="0" gridSize="10" guides="1" tooltips="1" connect="1" arrows="1" fold="1" page="0" pageScale="1" pageWidth="2000" pageHeight="2000" math="0" shadow="0">
      <root>
        <mxCell id="0" />
        <mxCell id="1" parent="0" />
        <mxCell id="bA1g9pyhOtrpm2S0dGZX-1" value="Hệ thống" style="swimlane;startSize=23;" parent="1" vertex="1">
          <mxGeometry x="393" y="190" width="673" height="1131" as="geometry" />
        </mxCell>
        <mxCell id="bA1g9pyhOtrpm2S0dGZX-2" value="Hiển thị danh sách danh mục" style="rounded=1;whiteSpace=wrap;html=1;arcSize=40;fontColor=#000000;fillColor=#FFFFFF;strokeColor=#000000;" parent="bA1g9pyhOtrpm2S0dGZX-1" vertex="1">
          <mxGeometry x="30" y="110" width="150" height="40" as="geometry" />
        </mxCell>
        <mxCell id="bA1g9pyhOtrpm2S0dGZX-3" style="edgeStyle=orthogonalEdgeStyle;rounded=0;orthogonalLoop=1;jettySize=auto;html=1;exitX=0.5;exitY=1;exitDx=0;exitDy=0;entryX=0.5;entryY=0;entryDx=0;entryDy=0;" parent="bA1g9pyhOtrpm2S0dGZX-1" source="bA1g9pyhOtrpm2S0dGZX-38" target="bA1g9pyhOtrpm2S0dGZX-39" edge="1">
          <mxGeometry relative="1" as="geometry">
            <mxPoint x="85" y="580" as="targetPoint" />
          </mxGeometry>
        </mxCell>
        <mxCell id="bA1g9pyhOtrpm2S0dGZX-4" value="[Không hợp lệ]" style="edgeLabel;html=1;align=center;verticalAlign=middle;resizable=0;points=[];" parent="bA1g9pyhOtrpm2S0dGZX-3" vertex="1" connectable="0">
          <mxGeometry x="-0.1365" y="3" relative="1" as="geometry">
            <mxPoint as="offset" />
          </mxGeometry>
        </mxCell>
        <mxCell id="bA1g9pyhOtrpm2S0dGZX-5" style="edgeStyle=orthogonalEdgeStyle;rounded=0;orthogonalLoop=1;jettySize=auto;html=1;exitX=1;exitY=0.5;exitDx=0;exitDy=0;entryX=0;entryY=0.5;entryDx=0;entryDy=0;" parent="bA1g9pyhOtrpm2S0dGZX-1" source="bA1g9pyhOtrpm2S0dGZX-38" target="bA1g9pyhOtrpm2S0dGZX-19" edge="1">
          <mxGeometry relative="1" as="geometry">
            <mxPoint x="530" y="478" as="targetPoint" />
          </mxGeometry>
        </mxCell>
        <mxCell id="bA1g9pyhOtrpm2S0dGZX-6" value="[Hợp lệ]" style="edgeLabel;html=1;align=center;verticalAlign=middle;resizable=0;points=[];" parent="bA1g9pyhOtrpm2S0dGZX-5" vertex="1" connectable="0">
          <mxGeometry x="-0.9344" y="-2" relative="1" as="geometry">
            <mxPoint x="28" as="offset" />
          </mxGeometry>
        </mxCell>
        <mxCell id="bA1g9pyhOtrpm2S0dGZX-7" value="" style="ellipse;html=1;shape=endState;fillColor=#000000;strokeColor=#000000;" parent="bA1g9pyhOtrpm2S0dGZX-1" vertex="1">
          <mxGeometry x="586" y="853" width="30" height="30" as="geometry" />
        </mxCell>
        <mxCell id="bA1g9pyhOtrpm2S0dGZX-8" style="edgeStyle=orthogonalEdgeStyle;rounded=0;orthogonalLoop=1;jettySize=auto;html=1;exitX=1;exitY=0.5;exitDx=0;exitDy=0;entryX=0.5;entryY=1;entryDx=0;entryDy=0;" parent="bA1g9pyhOtrpm2S0dGZX-1" source="bA1g9pyhOtrpm2S0dGZX-34" target="bA1g9pyhOtrpm2S0dGZX-37" edge="1">
          <mxGeometry relative="1" as="geometry" />
        </mxCell>
        <mxCell id="bA1g9pyhOtrpm2S0dGZX-9" style="edgeStyle=orthogonalEdgeStyle;rounded=0;orthogonalLoop=1;jettySize=auto;html=1;exitX=0.5;exitY=1;exitDx=0;exitDy=0;entryX=0.5;entryY=0;entryDx=0;entryDy=0;" parent="bA1g9pyhOtrpm2S0dGZX-1" source="bA1g9pyhOtrpm2S0dGZX-10" target="bA1g9pyhOtrpm2S0dGZX-12" edge="1">
          <mxGeometry relative="1" as="geometry">
            <mxPoint x="495" y="890" as="targetPoint" />
          </mxGeometry>
        </mxCell>
        <mxCell id="bA1g9pyhOtrpm2S0dGZX-10" value="Xử lý thao tác" style="rounded=1;whiteSpace=wrap;html=1;arcSize=40;fontColor=#000000;fillColor=#FFFFFF;strokeColor=#000000;" parent="bA1g9pyhOtrpm2S0dGZX-1" vertex="1">
          <mxGeometry x="541" y="652" width="120" height="40" as="geometry" />
        </mxCell>
        <mxCell id="bA1g9pyhOtrpm2S0dGZX-11" style="edgeStyle=orthogonalEdgeStyle;rounded=0;orthogonalLoop=1;jettySize=auto;html=1;exitX=0.5;exitY=1;exitDx=0;exitDy=0;entryX=0.5;entryY=0;entryDx=0;entryDy=0;" parent="bA1g9pyhOtrpm2S0dGZX-1" source="bA1g9pyhOtrpm2S0dGZX-12" target="xENvm5gPYsOTCK_6MlD2-1" edge="1">
          <mxGeometry relative="1" as="geometry" />
        </mxCell>
        <mxCell id="bA1g9pyhOtrpm2S0dGZX-12" value="Thông báo thành công" style="rounded=1;whiteSpace=wrap;html=1;arcSize=40;fontColor=#000000;fillColor=#FFFFFF;strokeColor=#000000;" parent="bA1g9pyhOtrpm2S0dGZX-1" vertex="1">
          <mxGeometry x="541" y="734" width="120" height="40" as="geometry" />
        </mxCell>
        <mxCell id="bA1g9pyhOtrpm2S0dGZX-13" style="edgeStyle=orthogonalEdgeStyle;rounded=0;orthogonalLoop=1;jettySize=auto;html=1;exitX=1;exitY=0.5;exitDx=0;exitDy=0;entryX=0;entryY=0.5;entryDx=0;entryDy=0;" parent="bA1g9pyhOtrpm2S0dGZX-1" source="bA1g9pyhOtrpm2S0dGZX-32" target="bA1g9pyhOtrpm2S0dGZX-38" edge="1">
          <mxGeometry relative="1" as="geometry" />
        </mxCell>
        <mxCell id="bA1g9pyhOtrpm2S0dGZX-14" value="Hiển thị biểu mẫu thông tin trống" style="rounded=1;whiteSpace=wrap;html=1;arcSize=40;fontColor=#000000;fillColor=#FFFFFF;strokeColor=#000000;" parent="bA1g9pyhOtrpm2S0dGZX-1" vertex="1">
          <mxGeometry x="37" y="757" width="120" height="40" as="geometry" />
        </mxCell>
        <mxCell id="bA1g9pyhOtrpm2S0dGZX-15" style="edgeStyle=orthogonalEdgeStyle;rounded=0;orthogonalLoop=1;jettySize=auto;html=1;exitX=1;exitY=0.5;exitDx=0;exitDy=0;entryX=0;entryY=0.5;entryDx=0;entryDy=0;" parent="bA1g9pyhOtrpm2S0dGZX-1" source="bA1g9pyhOtrpm2S0dGZX-16" target="xENvm5gPYsOTCK_6MlD2-1" edge="1">
          <mxGeometry relative="1" as="geometry" />
        </mxCell>
        <mxCell id="bA1g9pyhOtrpm2S0dGZX-16" value="Hiển thị danh sách danh mục dựa trên thông tin tìm kiếm" style="rounded=1;whiteSpace=wrap;html=1;arcSize=40;fontColor=#000000;fillColor=#FFFFFF;strokeColor=#000000;" parent="bA1g9pyhOtrpm2S0dGZX-1" vertex="1">
          <mxGeometry x="33" y="840.5" width="139" height="55" as="geometry" />
        </mxCell>
        <mxCell id="bA1g9pyhOtrpm2S0dGZX-17" style="edgeStyle=orthogonalEdgeStyle;rounded=0;orthogonalLoop=1;jettySize=auto;html=1;exitX=1;exitY=0.5;exitDx=0;exitDy=0;entryX=0.5;entryY=0;entryDx=0;entryDy=0;" parent="bA1g9pyhOtrpm2S0dGZX-1" source="bA1g9pyhOtrpm2S0dGZX-36" target="bA1g9pyhOtrpm2S0dGZX-37" edge="1">
          <mxGeometry relative="1" as="geometry" />
        </mxCell>
        <mxCell id="bA1g9pyhOtrpm2S0dGZX-18" style="edgeStyle=orthogonalEdgeStyle;rounded=0;orthogonalLoop=1;jettySize=auto;html=1;exitX=0.5;exitY=1;exitDx=0;exitDy=0;" parent="bA1g9pyhOtrpm2S0dGZX-1" source="bA1g9pyhOtrpm2S0dGZX-19" target="bA1g9pyhOtrpm2S0dGZX-10" edge="1">
          <mxGeometry relative="1" as="geometry" />
        </mxCell>
        <mxCell id="bA1g9pyhOtrpm2S0dGZX-19" value="" style="rhombus;whiteSpace=wrap;html=1;" parent="bA1g9pyhOtrpm2S0dGZX-1" vertex="1">
          <mxGeometry x="576" y="587" width="50" height="40" as="geometry" />
        </mxCell>
        <mxCell id="bA1g9pyhOtrpm2S0dGZX-20" value="" style="edgeStyle=orthogonalEdgeStyle;rounded=0;orthogonalLoop=1;jettySize=auto;html=1;" parent="bA1g9pyhOtrpm2S0dGZX-1" source="bA1g9pyhOtrpm2S0dGZX-21" target="bA1g9pyhOtrpm2S0dGZX-26" edge="1">
          <mxGeometry relative="1" as="geometry" />
        </mxCell>
        <mxCell id="bA1g9pyhOtrpm2S0dGZX-21" value="Kiểm tra xác nhận" style="rounded=1;whiteSpace=wrap;html=1;arcSize=40;fontColor=#000000;fillColor=#FFFFFF;strokeColor=#000000;" parent="bA1g9pyhOtrpm2S0dGZX-1" vertex="1">
          <mxGeometry x="307" y="352" width="150" height="40" as="geometry" />
        </mxCell>
        <mxCell id="bA1g9pyhOtrpm2S0dGZX-22" style="edgeStyle=orthogonalEdgeStyle;rounded=0;orthogonalLoop=1;jettySize=auto;html=1;exitX=0.5;exitY=1;exitDx=0;exitDy=0;entryX=0.5;entryY=0;entryDx=0;entryDy=0;" parent="bA1g9pyhOtrpm2S0dGZX-1" source="bA1g9pyhOtrpm2S0dGZX-26" target="bA1g9pyhOtrpm2S0dGZX-19" edge="1">
          <mxGeometry relative="1" as="geometry" />
        </mxCell>
        <mxCell id="bA1g9pyhOtrpm2S0dGZX-23" value="[Xác nhận]" style="edgeLabel;html=1;align=center;verticalAlign=middle;resizable=0;points=[];" parent="bA1g9pyhOtrpm2S0dGZX-22" vertex="1" connectable="0">
          <mxGeometry x="-0.855" y="1" relative="1" as="geometry">
            <mxPoint as="offset" />
          </mxGeometry>
        </mxCell>
        <mxCell id="bA1g9pyhOtrpm2S0dGZX-24" style="edgeStyle=orthogonalEdgeStyle;rounded=0;orthogonalLoop=1;jettySize=auto;html=1;exitX=0.5;exitY=0;exitDx=0;exitDy=0;" parent="bA1g9pyhOtrpm2S0dGZX-1" source="bA1g9pyhOtrpm2S0dGZX-26" target="bA1g9pyhOtrpm2S0dGZX-29" edge="1">
          <mxGeometry relative="1" as="geometry" />
        </mxCell>
        <mxCell id="bA1g9pyhOtrpm2S0dGZX-25" value="[Không xác nhận]" style="edgeLabel;html=1;align=center;verticalAlign=middle;resizable=0;points=[];" parent="bA1g9pyhOtrpm2S0dGZX-24" vertex="1" connectable="0">
          <mxGeometry x="0.043" y="4" relative="1" as="geometry">
            <mxPoint as="offset" />
          </mxGeometry>
        </mxCell>
        <mxCell id="bA1g9pyhOtrpm2S0dGZX-26" value="" style="rhombus;whiteSpace=wrap;html=1;" parent="bA1g9pyhOtrpm2S0dGZX-1" vertex="1">
          <mxGeometry x="576" y="352" width="50" height="40" as="geometry" />
        </mxCell>
        <mxCell id="bA1g9pyhOtrpm2S0dGZX-27" value="" style="ellipse;html=1;shape=endState;fillColor=#000000;strokeColor=#000000;" parent="bA1g9pyhOtrpm2S0dGZX-1" vertex="1">
          <mxGeometry x="586" y="164" width="30" height="30" as="geometry" />
        </mxCell>
        <mxCell id="bA1g9pyhOtrpm2S0dGZX-28" value="" style="edgeStyle=orthogonalEdgeStyle;rounded=0;orthogonalLoop=1;jettySize=auto;html=1;" parent="bA1g9pyhOtrpm2S0dGZX-1" source="bA1g9pyhOtrpm2S0dGZX-29" target="bA1g9pyhOtrpm2S0dGZX-27" edge="1">
          <mxGeometry relative="1" as="geometry" />
        </mxCell>
        <mxCell id="bA1g9pyhOtrpm2S0dGZX-29" value="Thông báo hủy thao tác" style="rounded=1;whiteSpace=wrap;html=1;arcSize=40;fontColor=#000000;fillColor=#FFFFFF;strokeColor=#000000;" parent="bA1g9pyhOtrpm2S0dGZX-1" vertex="1">
          <mxGeometry x="535.5" y="251" width="131" height="39" as="geometry" />
        </mxCell>
        <mxCell id="bA1g9pyhOtrpm2S0dGZX-30" value="Điền thông tin vào biểu mẫu" style="rounded=1;whiteSpace=wrap;html=1;arcSize=40;fontColor=#000000;fillColor=#FFFFFF;strokeColor=#000000;" parent="bA1g9pyhOtrpm2S0dGZX-1" vertex="1">
          <mxGeometry x="-179" y="654" width="150" height="40" as="geometry" />
        </mxCell>
        <mxCell id="bA1g9pyhOtrpm2S0dGZX-31" style="edgeStyle=orthogonalEdgeStyle;rounded=0;orthogonalLoop=1;jettySize=auto;html=1;exitX=1;exitY=0.5;exitDx=0;exitDy=0;entryX=0;entryY=0.5;entryDx=0;entryDy=0;" parent="bA1g9pyhOtrpm2S0dGZX-1" source="bA1g9pyhOtrpm2S0dGZX-30" target="bA1g9pyhOtrpm2S0dGZX-32" edge="1">
          <mxGeometry relative="1" as="geometry" />
        </mxCell>
        <mxCell id="bA1g9pyhOtrpm2S0dGZX-32" value="Kiểm tra tính hợp lệ của thông tin" style="rounded=1;whiteSpace=wrap;html=1;arcSize=40;fontColor=#000000;fillColor=#FFFFFF;strokeColor=#000000;" parent="bA1g9pyhOtrpm2S0dGZX-1" vertex="1">
          <mxGeometry x="87" y="587" width="150" height="40" as="geometry" />
        </mxCell>
        <mxCell id="bA1g9pyhOtrpm2S0dGZX-33" style="edgeStyle=orthogonalEdgeStyle;rounded=0;orthogonalLoop=1;jettySize=auto;html=1;exitX=0;exitY=0.5;exitDx=0;exitDy=0;entryX=0.843;entryY=0.92;entryDx=0;entryDy=0;entryPerimeter=0;" parent="bA1g9pyhOtrpm2S0dGZX-1" source="bA1g9pyhOtrpm2S0dGZX-39" target="bA1g9pyhOtrpm2S0dGZX-30" edge="1">
          <mxGeometry relative="1" as="geometry" />
        </mxCell>
        <mxCell id="bA1g9pyhOtrpm2S0dGZX-34" value="Hiển thị biểu mẫu gồm thông tin danh mục" style="rounded=1;whiteSpace=wrap;html=1;arcSize=40;fontColor=#000000;fillColor=#FFFFFF;strokeColor=#000000;" parent="bA1g9pyhOtrpm2S0dGZX-1" vertex="1">
          <mxGeometry x="87" y="489" width="140" height="60" as="geometry" />
        </mxCell>
        <mxCell id="bA1g9pyhOtrpm2S0dGZX-35" style="edgeStyle=orthogonalEdgeStyle;rounded=0;orthogonalLoop=1;jettySize=auto;html=1;exitX=1;exitY=0.5;exitDx=0;exitDy=0;entryX=0.84;entryY=0.087;entryDx=0;entryDy=0;entryPerimeter=0;" parent="bA1g9pyhOtrpm2S0dGZX-1" source="bA1g9pyhOtrpm2S0dGZX-37" target="bA1g9pyhOtrpm2S0dGZX-30" edge="1">
          <mxGeometry relative="1" as="geometry" />
        </mxCell>
        <mxCell id="bA1g9pyhOtrpm2S0dGZX-36" value="Hiển thị biểu mẫu trống cho thông tin danh mục" style="rounded=1;whiteSpace=wrap;html=1;arcSize=40;fontColor=#000000;fillColor=#FFFFFF;strokeColor=#000000;" parent="bA1g9pyhOtrpm2S0dGZX-1" vertex="1">
          <mxGeometry x="87" y="403" width="140" height="60" as="geometry" />
        </mxCell>
        <mxCell id="bA1g9pyhOtrpm2S0dGZX-37" value="" style="rhombus;whiteSpace=wrap;html=1;" parent="bA1g9pyhOtrpm2S0dGZX-1" vertex="1">
          <mxGeometry x="323" y="456" width="50" height="40" as="geometry" />
        </mxCell>
        <mxCell id="bA1g9pyhOtrpm2S0dGZX-38" value="" style="rhombus;whiteSpace=wrap;html=1;" parent="bA1g9pyhOtrpm2S0dGZX-1" vertex="1">
          <mxGeometry x="301" y="587" width="50" height="40" as="geometry" />
        </mxCell>
        <mxCell id="bA1g9pyhOtrpm2S0dGZX-39" value="Thông báo thông tin không hợp lệ" style="rounded=1;whiteSpace=wrap;html=1;arcSize=40;fontColor=#000000;fillColor=#FFFFFF;strokeColor=#000000;" parent="bA1g9pyhOtrpm2S0dGZX-1" vertex="1">
          <mxGeometry x="251" y="708" width="150" height="40" as="geometry" />
        </mxCell>
        <mxCell id="bA1g9pyhOtrpm2S0dGZX-40" value="HIển thị cảnh báo" style="rounded=1;whiteSpace=wrap;html=1;arcSize=40;fontColor=#000000;fillColor=#FFFFFF;strokeColor=#000000;" parent="bA1g9pyhOtrpm2S0dGZX-1" vertex="1">
          <mxGeometry x="16" y="194" width="150" height="40" as="geometry" />
        </mxCell>
        <mxCell id="bA1g9pyhOtrpm2S0dGZX-97" value="Hiển thị biểu mẫu bao gồm danh sách các sản phẩm thuộc danh mục" style="rounded=1;whiteSpace=wrap;html=1;arcSize=40;fontColor=#000000;fillColor=#FFFFFF;strokeColor=#000000;" parent="bA1g9pyhOtrpm2S0dGZX-1" vertex="1">
          <mxGeometry x="30" y="939" width="186" height="72" as="geometry" />
        </mxCell>
        <mxCell id="xENvm5gPYsOTCK_6MlD2-2" style="edgeStyle=orthogonalEdgeStyle;rounded=0;orthogonalLoop=1;jettySize=auto;html=1;exitX=1;exitY=0.5;exitDx=0;exitDy=0;entryX=0;entryY=0.5;entryDx=0;entryDy=0;" edge="1" parent="bA1g9pyhOtrpm2S0dGZX-1" source="xENvm5gPYsOTCK_6MlD2-1" target="bA1g9pyhOtrpm2S0dGZX-7">
          <mxGeometry relative="1" as="geometry" />
        </mxCell>
        <mxCell id="xENvm5gPYsOTCK_6MlD2-1" value="" style="rhombus;whiteSpace=wrap;html=1;" vertex="1" parent="bA1g9pyhOtrpm2S0dGZX-1">
          <mxGeometry x="411" y="848" width="50" height="40" as="geometry" />
        </mxCell>
        <mxCell id="bA1g9pyhOtrpm2S0dGZX-41" value="Người dùng" style="swimlane;startSize=23;" parent="1" vertex="1">
          <mxGeometry x="-292" y="190" width="685" height="1132" as="geometry" />
        </mxCell>
        <mxCell id="bA1g9pyhOtrpm2S0dGZX-42" value="Chọn chức năng Quản lý danh mục" style="rounded=1;whiteSpace=wrap;html=1;arcSize=40;fontColor=#000000;fillColor=#FFFFFF;strokeColor=#000000;" parent="bA1g9pyhOtrpm2S0dGZX-41" vertex="1">
          <mxGeometry x="30" y="110" width="130" height="40" as="geometry" />
        </mxCell>
        <mxCell id="bA1g9pyhOtrpm2S0dGZX-43" value="" style="ellipse;html=1;shape=startState;fillColor=#000000;strokeColor=#000000;" parent="bA1g9pyhOtrpm2S0dGZX-41" vertex="1">
          <mxGeometry x="80" y="40" width="30" height="30" as="geometry" />
        </mxCell>
        <mxCell id="bA1g9pyhOtrpm2S0dGZX-44" value="" style="edgeStyle=orthogonalEdgeStyle;html=1;verticalAlign=bottom;endArrow=open;endSize=8;strokeColor=#000000;rounded=0;entryX=0.5;entryY=0;entryDx=0;entryDy=0;" parent="bA1g9pyhOtrpm2S0dGZX-41" source="bA1g9pyhOtrpm2S0dGZX-43" target="bA1g9pyhOtrpm2S0dGZX-42" edge="1">
          <mxGeometry relative="1" as="geometry">
            <mxPoint x="90" y="130" as="targetPoint" />
          </mxGeometry>
        </mxCell>
        <mxCell id="bA1g9pyhOtrpm2S0dGZX-45" style="edgeStyle=orthogonalEdgeStyle;rounded=0;orthogonalLoop=1;jettySize=auto;html=1;exitX=0.5;exitY=1;exitDx=0;exitDy=0;entryX=0.5;entryY=0;entryDx=0;entryDy=0;" parent="bA1g9pyhOtrpm2S0dGZX-41" source="bA1g9pyhOtrpm2S0dGZX-46" target="bA1g9pyhOtrpm2S0dGZX-51" edge="1">
          <mxGeometry relative="1" as="geometry" />
        </mxCell>
        <mxCell id="bA1g9pyhOtrpm2S0dGZX-46" value="Kiểm tra chức vụ" style="rounded=1;whiteSpace=wrap;html=1;arcSize=40;fontColor=#000000;fillColor=#FFFFFF;strokeColor=#000000;" parent="bA1g9pyhOtrpm2S0dGZX-41" vertex="1">
          <mxGeometry x="35" y="218" width="128" height="42" as="geometry" />
        </mxCell>
        <mxCell id="bA1g9pyhOtrpm2S0dGZX-47" style="edgeStyle=orthogonalEdgeStyle;rounded=0;orthogonalLoop=1;jettySize=auto;html=1;exitX=1;exitY=0.5;exitDx=0;exitDy=0;entryX=0;entryY=0.5;entryDx=0;entryDy=0;" parent="bA1g9pyhOtrpm2S0dGZX-41" source="bA1g9pyhOtrpm2S0dGZX-51" target="bA1g9pyhOtrpm2S0dGZX-52" edge="1">
          <mxGeometry relative="1" as="geometry">
            <mxPoint x="234" y="334" as="targetPoint" />
          </mxGeometry>
        </mxCell>
        <mxCell id="bA1g9pyhOtrpm2S0dGZX-48" value="[Quản lý cửa hàng&lt;div&gt;hoặc quản trị viên]&lt;/div&gt;" style="edgeLabel;html=1;align=center;verticalAlign=middle;resizable=0;points=[];" parent="bA1g9pyhOtrpm2S0dGZX-47" vertex="1" connectable="0">
          <mxGeometry x="-0.5309" y="-1" relative="1" as="geometry">
            <mxPoint x="-4" y="-25" as="offset" />
          </mxGeometry>
        </mxCell>
        <mxCell id="bA1g9pyhOtrpm2S0dGZX-49" style="edgeStyle=orthogonalEdgeStyle;rounded=0;orthogonalLoop=1;jettySize=auto;html=1;exitX=0.5;exitY=1;exitDx=0;exitDy=0;entryX=0.5;entryY=0;entryDx=0;entryDy=0;" parent="bA1g9pyhOtrpm2S0dGZX-41" source="bA1g9pyhOtrpm2S0dGZX-51" target="bA1g9pyhOtrpm2S0dGZX-73" edge="1">
          <mxGeometry relative="1" as="geometry">
            <mxPoint x="95" y="422" as="targetPoint" />
          </mxGeometry>
        </mxCell>
        <mxCell id="bA1g9pyhOtrpm2S0dGZX-50" value="[Khác]" style="edgeLabel;html=1;align=center;verticalAlign=middle;resizable=0;points=[];" parent="bA1g9pyhOtrpm2S0dGZX-49" vertex="1" connectable="0">
          <mxGeometry x="-0.305" y="-1" relative="1" as="geometry">
            <mxPoint as="offset" />
          </mxGeometry>
        </mxCell>
        <mxCell id="bA1g9pyhOtrpm2S0dGZX-51" value="" style="rhombus;whiteSpace=wrap;html=1;" parent="bA1g9pyhOtrpm2S0dGZX-41" vertex="1">
          <mxGeometry x="70" y="290" width="50" height="40" as="geometry" />
        </mxCell>
        <mxCell id="bA1g9pyhOtrpm2S0dGZX-80" style="edgeStyle=orthogonalEdgeStyle;rounded=0;orthogonalLoop=1;jettySize=auto;html=1;exitX=1;exitY=0.5;exitDx=0;exitDy=0;entryX=0;entryY=0.5;entryDx=0;entryDy=0;" parent="bA1g9pyhOtrpm2S0dGZX-41" source="bA1g9pyhOtrpm2S0dGZX-52" target="bA1g9pyhOtrpm2S0dGZX-55" edge="1">
          <mxGeometry relative="1" as="geometry" />
        </mxCell>
        <mxCell id="bA1g9pyhOtrpm2S0dGZX-52" value="Thực hiện các thao tác quản lý" style="rounded=1;whiteSpace=wrap;html=1;arcSize=40;fontColor=#000000;fillColor=#FFFFFF;strokeColor=#000000;" parent="bA1g9pyhOtrpm2S0dGZX-41" vertex="1">
          <mxGeometry x="267" y="193" width="128" height="42" as="geometry" />
        </mxCell>
        <mxCell id="bA1g9pyhOtrpm2S0dGZX-53" style="edgeStyle=orthogonalEdgeStyle;rounded=0;orthogonalLoop=1;jettySize=auto;html=1;exitX=0;exitY=1;exitDx=0;exitDy=0;entryX=0.855;entryY=0.493;entryDx=0;entryDy=0;entryPerimeter=0;" parent="bA1g9pyhOtrpm2S0dGZX-41" source="bA1g9pyhOtrpm2S0dGZX-55" target="bA1g9pyhOtrpm2S0dGZX-94" edge="1">
          <mxGeometry relative="1" as="geometry">
            <Array as="points">
              <mxPoint x="485" y="608" />
            </Array>
            <mxPoint x="405" y="597.9999999999998" as="targetPoint" />
          </mxGeometry>
        </mxCell>
        <mxCell id="bA1g9pyhOtrpm2S0dGZX-54" value="[Tìm kiếm]" style="edgeLabel;html=1;align=center;verticalAlign=middle;resizable=0;points=[];" parent="bA1g9pyhOtrpm2S0dGZX-53" vertex="1" connectable="0">
          <mxGeometry x="-0.8581" y="-1" relative="1" as="geometry">
            <mxPoint x="-23" y="26" as="offset" />
          </mxGeometry>
        </mxCell>
        <mxCell id="bA1g9pyhOtrpm2S0dGZX-55" value="" style="rhombus;whiteSpace=wrap;html=1;" parent="bA1g9pyhOtrpm2S0dGZX-41" vertex="1">
          <mxGeometry x="472" y="194" width="50" height="40" as="geometry" />
        </mxCell>
        <mxCell id="bA1g9pyhOtrpm2S0dGZX-58" value="Điền thông tin vào biểu mẫu" style="rounded=1;whiteSpace=wrap;html=1;arcSize=40;fontColor=#000000;fillColor=#FFFFFF;strokeColor=#000000;" parent="bA1g9pyhOtrpm2S0dGZX-41" vertex="1">
          <mxGeometry x="519" y="848" width="120" height="40" as="geometry" />
        </mxCell>
        <mxCell id="bA1g9pyhOtrpm2S0dGZX-59" value="Xác nhận cảnh báo" style="rounded=1;whiteSpace=wrap;html=1;arcSize=40;fontColor=#000000;fillColor=#FFFFFF;strokeColor=#000000;" parent="bA1g9pyhOtrpm2S0dGZX-41" vertex="1">
          <mxGeometry x="535" y="256" width="150" height="40" as="geometry" />
        </mxCell>
        <mxCell id="bA1g9pyhOtrpm2S0dGZX-90" style="edgeStyle=orthogonalEdgeStyle;rounded=0;orthogonalLoop=1;jettySize=auto;html=1;exitX=0.5;exitY=1;exitDx=0;exitDy=0;entryX=0.5;entryY=0;entryDx=0;entryDy=0;" parent="bA1g9pyhOtrpm2S0dGZX-41" source="bA1g9pyhOtrpm2S0dGZX-73" target="bA1g9pyhOtrpm2S0dGZX-74" edge="1">
          <mxGeometry relative="1" as="geometry" />
        </mxCell>
        <mxCell id="bA1g9pyhOtrpm2S0dGZX-73" value="Thực hiện các thao tác xem thông tin" style="rounded=1;whiteSpace=wrap;html=1;arcSize=40;fontColor=#000000;fillColor=#FFFFFF;strokeColor=#000000;" parent="bA1g9pyhOtrpm2S0dGZX-41" vertex="1">
          <mxGeometry x="31" y="429" width="128" height="42" as="geometry" />
        </mxCell>
        <mxCell id="bA1g9pyhOtrpm2S0dGZX-75" style="edgeStyle=orthogonalEdgeStyle;rounded=0;orthogonalLoop=1;jettySize=auto;html=1;exitX=1;exitY=0.5;exitDx=0;exitDy=0;entryX=0;entryY=0.5;entryDx=0;entryDy=0;" parent="bA1g9pyhOtrpm2S0dGZX-41" source="bA1g9pyhOtrpm2S0dGZX-74" target="bA1g9pyhOtrpm2S0dGZX-94" edge="1">
          <mxGeometry relative="1" as="geometry">
            <mxPoint x="277" y="608.5" as="targetPoint" />
          </mxGeometry>
        </mxCell>
        <mxCell id="bA1g9pyhOtrpm2S0dGZX-76" value="[Tìm kiếm]" style="edgeLabel;html=1;align=center;verticalAlign=middle;resizable=0;points=[];" parent="bA1g9pyhOtrpm2S0dGZX-75" vertex="1" connectable="0">
          <mxGeometry x="-0.753" y="1" relative="1" as="geometry">
            <mxPoint as="offset" />
          </mxGeometry>
        </mxCell>
        <mxCell id="bA1g9pyhOtrpm2S0dGZX-77" style="edgeStyle=orthogonalEdgeStyle;rounded=0;orthogonalLoop=1;jettySize=auto;html=1;exitX=0.5;exitY=1;exitDx=0;exitDy=0;entryX=0;entryY=0.5;entryDx=0;entryDy=0;" parent="bA1g9pyhOtrpm2S0dGZX-41" source="bA1g9pyhOtrpm2S0dGZX-74" target="bA1g9pyhOtrpm2S0dGZX-95" edge="1">
          <mxGeometry relative="1" as="geometry">
            <mxPoint x="114" y="680.9999999999998" as="targetPoint" />
          </mxGeometry>
        </mxCell>
        <mxCell id="bA1g9pyhOtrpm2S0dGZX-74" value="" style="rhombus;whiteSpace=wrap;html=1;" parent="bA1g9pyhOtrpm2S0dGZX-41" vertex="1">
          <mxGeometry x="70" y="515" width="50" height="40" as="geometry" />
        </mxCell>
        <mxCell id="bA1g9pyhOtrpm2S0dGZX-91" value="[Xem sản phẩm&lt;div&gt;thuộc danh sách]&lt;/div&gt;" style="edgeLabel;html=1;align=center;verticalAlign=middle;resizable=0;points=[];" parent="bA1g9pyhOtrpm2S0dGZX-41" vertex="1" connectable="0">
          <mxGeometry x="98.99666666666673" y="580" as="geometry" />
        </mxCell>
        <mxCell id="bA1g9pyhOtrpm2S0dGZX-92" style="edgeStyle=orthogonalEdgeStyle;rounded=0;orthogonalLoop=1;jettySize=auto;html=1;exitX=0;exitY=1;exitDx=0;exitDy=0;entryX=1;entryY=0.5;entryDx=0;entryDy=0;" parent="bA1g9pyhOtrpm2S0dGZX-41" source="bA1g9pyhOtrpm2S0dGZX-55" target="bA1g9pyhOtrpm2S0dGZX-95" edge="1">
          <mxGeometry relative="1" as="geometry">
            <mxPoint x="230.99199999999996" y="664.1579999999999" as="targetPoint" />
            <Array as="points">
              <mxPoint x="420" y="225" />
              <mxPoint x="420" y="269" />
              <mxPoint x="231" y="269" />
              <mxPoint x="231" y="702" />
            </Array>
          </mxGeometry>
        </mxCell>
        <mxCell id="bA1g9pyhOtrpm2S0dGZX-93" value="[Xem sản phẩm&lt;div&gt;thuộc danh sách]&lt;/div&gt;" style="edgeLabel;html=1;align=center;verticalAlign=middle;resizable=0;points=[];" parent="bA1g9pyhOtrpm2S0dGZX-41" vertex="1" connectable="0">
          <mxGeometry x="415.9966666666667" y="253" as="geometry" />
        </mxCell>
        <mxCell id="bA1g9pyhOtrpm2S0dGZX-94" value="" style="rhombus;whiteSpace=wrap;html=1;" parent="bA1g9pyhOtrpm2S0dGZX-41" vertex="1">
          <mxGeometry x="314" y="588" width="50" height="40" as="geometry" />
        </mxCell>
        <mxCell id="bA1g9pyhOtrpm2S0dGZX-95" value="" style="rhombus;whiteSpace=wrap;html=1;" parent="bA1g9pyhOtrpm2S0dGZX-41" vertex="1">
          <mxGeometry x="136" y="682" width="50" height="40" as="geometry" />
        </mxCell>
        <mxCell id="bA1g9pyhOtrpm2S0dGZX-99" value="Quản lý sản phẩm" style="rounded=1;whiteSpace=wrap;html=1;arcSize=40;fontColor=#000000;fillColor=#FFFFFF;strokeColor=#000000;" parent="bA1g9pyhOtrpm2S0dGZX-41" vertex="1">
          <mxGeometry x="336" y="1024" width="132" height="30" as="geometry" />
        </mxCell>
        <mxCell id="bA1g9pyhOtrpm2S0dGZX-103" value="Activity Diagram: Quản lý sản phẩm" style="shape=note;size=20;whiteSpace=wrap;html=1;" parent="bA1g9pyhOtrpm2S0dGZX-41" vertex="1">
          <mxGeometry x="175" y="1002" width="100" height="100" as="geometry" />
        </mxCell>
        <mxCell id="bA1g9pyhOtrpm2S0dGZX-104" style="edgeStyle=orthogonalEdgeStyle;rounded=0;orthogonalLoop=1;jettySize=auto;html=1;exitX=0;exitY=0.5;exitDx=0;exitDy=0;entryX=0.986;entryY=0.378;entryDx=0;entryDy=0;entryPerimeter=0;endArrow=none;startFill=0;" parent="bA1g9pyhOtrpm2S0dGZX-41" source="bA1g9pyhOtrpm2S0dGZX-99" target="bA1g9pyhOtrpm2S0dGZX-103" edge="1">
          <mxGeometry relative="1" as="geometry" />
        </mxCell>
        <mxCell id="bA1g9pyhOtrpm2S0dGZX-60" style="edgeStyle=orthogonalEdgeStyle;rounded=0;orthogonalLoop=1;jettySize=auto;html=1;exitX=1;exitY=0.5;exitDx=0;exitDy=0;" parent="1" source="bA1g9pyhOtrpm2S0dGZX-42" target="bA1g9pyhOtrpm2S0dGZX-2" edge="1">
          <mxGeometry relative="1" as="geometry" />
        </mxCell>
        <mxCell id="bA1g9pyhOtrpm2S0dGZX-61" style="edgeStyle=orthogonalEdgeStyle;rounded=0;orthogonalLoop=1;jettySize=auto;html=1;exitX=0.5;exitY=1;exitDx=0;exitDy=0;entryX=0.5;entryY=0;entryDx=0;entryDy=0;" parent="1" source="bA1g9pyhOtrpm2S0dGZX-2" target="bA1g9pyhOtrpm2S0dGZX-46" edge="1">
          <mxGeometry relative="1" as="geometry">
            <mxPoint x="173" y="406" as="targetPoint" />
          </mxGeometry>
        </mxCell>
        <mxCell id="bA1g9pyhOtrpm2S0dGZX-64" style="edgeStyle=orthogonalEdgeStyle;rounded=0;orthogonalLoop=1;jettySize=auto;html=1;exitX=0.5;exitY=1;exitDx=0;exitDy=0;entryX=0;entryY=0.5;entryDx=0;entryDy=0;" parent="1" source="bA1g9pyhOtrpm2S0dGZX-94" target="bA1g9pyhOtrpm2S0dGZX-14" edge="1">
          <mxGeometry relative="1" as="geometry">
            <mxPoint x="49.00000000000023" y="809" as="sourcePoint" />
          </mxGeometry>
        </mxCell>
        <mxCell id="bA1g9pyhOtrpm2S0dGZX-67" style="edgeStyle=orthogonalEdgeStyle;rounded=0;orthogonalLoop=1;jettySize=auto;html=1;exitX=0.5;exitY=1;exitDx=0;exitDy=0;entryX=0.5;entryY=0;entryDx=0;entryDy=0;" parent="1" source="bA1g9pyhOtrpm2S0dGZX-14" target="bA1g9pyhOtrpm2S0dGZX-58" edge="1">
          <mxGeometry relative="1" as="geometry">
            <mxPoint x="124" y="1123" as="targetPoint" />
          </mxGeometry>
        </mxCell>
        <mxCell id="bA1g9pyhOtrpm2S0dGZX-68" style="edgeStyle=orthogonalEdgeStyle;rounded=0;orthogonalLoop=1;jettySize=auto;html=1;exitX=1;exitY=0.5;exitDx=0;exitDy=0;" parent="1" source="bA1g9pyhOtrpm2S0dGZX-58" target="bA1g9pyhOtrpm2S0dGZX-16" edge="1">
          <mxGeometry relative="1" as="geometry" />
        </mxCell>
        <mxCell id="bA1g9pyhOtrpm2S0dGZX-69" value="" style="edgeStyle=orthogonalEdgeStyle;rounded=0;orthogonalLoop=1;jettySize=auto;html=1;exitX=1;exitY=0.5;exitDx=0;exitDy=0;entryX=0;entryY=0.5;entryDx=0;entryDy=0;" parent="1" source="bA1g9pyhOtrpm2S0dGZX-55" target="bA1g9pyhOtrpm2S0dGZX-40" edge="1">
          <mxGeometry relative="1" as="geometry">
            <mxPoint x="577" y="493" as="targetPoint" />
            <mxPoint x="292" y="493" as="sourcePoint" />
          </mxGeometry>
        </mxCell>
        <mxCell id="bA1g9pyhOtrpm2S0dGZX-70" value="[Xóa]" style="edgeLabel;html=1;align=center;verticalAlign=middle;resizable=0;points=[];" parent="bA1g9pyhOtrpm2S0dGZX-69" vertex="1" connectable="0">
          <mxGeometry x="-0.9021" y="-4" relative="1" as="geometry">
            <mxPoint x="10" y="-7" as="offset" />
          </mxGeometry>
        </mxCell>
        <mxCell id="bA1g9pyhOtrpm2S0dGZX-71" style="edgeStyle=orthogonalEdgeStyle;rounded=0;orthogonalLoop=1;jettySize=auto;html=1;exitX=1;exitY=0.75;exitDx=0;exitDy=0;" parent="1" source="bA1g9pyhOtrpm2S0dGZX-59" target="bA1g9pyhOtrpm2S0dGZX-21" edge="1">
          <mxGeometry relative="1" as="geometry" />
        </mxCell>
        <mxCell id="bA1g9pyhOtrpm2S0dGZX-72" style="edgeStyle=orthogonalEdgeStyle;rounded=0;orthogonalLoop=1;jettySize=auto;html=1;exitX=0;exitY=0.75;exitDx=0;exitDy=0;entryX=0.5;entryY=0;entryDx=0;entryDy=0;" parent="1" source="bA1g9pyhOtrpm2S0dGZX-40" target="bA1g9pyhOtrpm2S0dGZX-59" edge="1">
          <mxGeometry relative="1" as="geometry" />
        </mxCell>
        <mxCell id="bA1g9pyhOtrpm2S0dGZX-81" style="edgeStyle=orthogonalEdgeStyle;rounded=0;orthogonalLoop=1;jettySize=auto;html=1;exitX=0.5;exitY=1;exitDx=0;exitDy=0;entryX=-0.001;entryY=0.587;entryDx=0;entryDy=0;entryPerimeter=0;" parent="1" source="bA1g9pyhOtrpm2S0dGZX-55" target="bA1g9pyhOtrpm2S0dGZX-34" edge="1">
          <mxGeometry relative="1" as="geometry" />
        </mxCell>
        <mxCell id="bA1g9pyhOtrpm2S0dGZX-86" value="[Sửa]" style="edgeLabel;html=1;align=center;verticalAlign=middle;resizable=0;points=[];" parent="bA1g9pyhOtrpm2S0dGZX-81" vertex="1" connectable="0">
          <mxGeometry x="-0.9468" relative="1" as="geometry">
            <mxPoint x="5" y="16" as="offset" />
          </mxGeometry>
        </mxCell>
        <mxCell id="bA1g9pyhOtrpm2S0dGZX-84" style="edgeStyle=orthogonalEdgeStyle;rounded=0;orthogonalLoop=1;jettySize=auto;html=1;exitX=1;exitY=1;exitDx=0;exitDy=0;entryX=0;entryY=0.5;entryDx=0;entryDy=0;" parent="1" source="bA1g9pyhOtrpm2S0dGZX-55" target="bA1g9pyhOtrpm2S0dGZX-36" edge="1">
          <mxGeometry relative="1" as="geometry">
            <Array as="points">
              <mxPoint x="233" y="415" />
              <mxPoint x="233" y="623" />
            </Array>
          </mxGeometry>
        </mxCell>
        <mxCell id="bA1g9pyhOtrpm2S0dGZX-85" value="[Thêm]" style="edgeLabel;html=1;align=center;verticalAlign=middle;resizable=0;points=[];" parent="bA1g9pyhOtrpm2S0dGZX-84" vertex="1" connectable="0">
          <mxGeometry x="-0.8881" relative="1" as="geometry">
            <mxPoint as="offset" />
          </mxGeometry>
        </mxCell>
        <mxCell id="bA1g9pyhOtrpm2S0dGZX-96" style="edgeStyle=orthogonalEdgeStyle;rounded=0;orthogonalLoop=1;jettySize=auto;html=1;exitX=0.5;exitY=1;exitDx=0;exitDy=0;entryX=0;entryY=0.5;entryDx=0;entryDy=0;" parent="1" source="bA1g9pyhOtrpm2S0dGZX-95" target="bA1g9pyhOtrpm2S0dGZX-97" edge="1">
          <mxGeometry relative="1" as="geometry">
            <mxPoint x="-131.47058823529414" y="1182.6471019071691" as="targetPoint" />
          </mxGeometry>
        </mxCell>
        <mxCell id="bA1g9pyhOtrpm2S0dGZX-101" style="edgeStyle=orthogonalEdgeStyle;rounded=0;orthogonalLoop=1;jettySize=auto;html=1;exitX=0.5;exitY=1;exitDx=0;exitDy=0;entryX=1;entryY=0.5;entryDx=0;entryDy=0;" parent="1" source="bA1g9pyhOtrpm2S0dGZX-97" target="bA1g9pyhOtrpm2S0dGZX-99" edge="1">
          <mxGeometry relative="1" as="geometry" />
        </mxCell>
        <mxCell id="bA1g9pyhOtrpm2S0dGZX-105" style="edgeStyle=orthogonalEdgeStyle;rounded=0;orthogonalLoop=1;jettySize=auto;html=1;exitX=0.5;exitY=1;exitDx=0;exitDy=0;" parent="1" source="bA1g9pyhOtrpm2S0dGZX-99" target="xENvm5gPYsOTCK_6MlD2-1" edge="1">
          <mxGeometry relative="1" as="geometry" />
        </mxCell>
      </root>
    </mxGraphModel>
  </diagram>
</mxfile>
